#Comment line ignore any data following # character 
#Hierarchical Translation and Rotation (.htr) file 
[Header]	
#Header keywords are followed by a single value 
FileType HTR		#Single word string
DataType HTRS		#Translation followed by rotation and scale data
FileVersion 1		#integer
NumSegments 84		#integer
NumFrames 2		#integer
DataFrameRate 30		#integer, data frame rate in this file
EulerRotationOrder ZYX
CalibrationUnits mm
RotationUnits Degrees
GlobalAxisofGravity Y
BoneLengthAxis Y
ScaleFactor 1.00
[SegmentNames&Hierarchy]
#CHILD	PARENT
MASTER GLOBAL
root MASTER
chest root
L_mid_tent01 root
R_mid_tent01 root
spine01 root
Bip01_Neck chest
L_humerus chest
R_humerus chest
weapon_bone chest
Bip01_Head Bip01_Neck
eye_left_bone Bip01_Head
eye_right_bone Bip01_Head
L_forearm L_humerus
L_front_hand L_forearm
L_weapon_bone L_forearm
L_front_hand01_01 L_front_hand
L_front_hand02_01 L_front_hand
L_front_hand03_01 L_front_hand
L_front_hand01_02 L_front_hand01_01
L_front_hand02_02 L_front_hand02_01
L_front_hand03_02 L_front_hand03_01
R_forearm R_humerus
R_front_hand R_forearm
R_weapon_bone R_forearm
R_front_hand01_01 R_front_hand
R_front_hand02_01 R_front_hand
R_front_hand03_01 R_front_hand
R_front_hand01_02 R_front_hand01_01
R_front_hand02_02 R_front_hand02_01
R_front_hand03_02 R_front_hand03_01
null_rope01_connect L_mid_tent01
Rope1_Seg01 null_rope01_connect
Rope1_Seg02 Rope1_Seg01
Rope1_Seg03 Rope1_Seg02
Rope1_Seg04 Rope1_Seg03
Rope1_Seg05 Rope1_Seg04
Rope1_Seg06 Rope1_Seg05
Rope1_Seg07 Rope1_Seg06
Rope1_Seg09 Rope1_Seg07
L_mid_hand01 Rope1_Seg09
L_mid_hand02 Rope1_Seg09
L_mid_hand03 Rope1_Seg09
null_rope02_connect R_mid_tent01
Rope2_Seg01 null_rope02_connect
Rope2_Seg02 Rope2_Seg01
Rope2_Seg03 Rope2_Seg02
Rope2_Seg04 Rope2_Seg03
Rope2_Seg05 Rope2_Seg04
Rope2_Seg06 Rope2_Seg05
Rope2_Seg07 Rope2_Seg06
Rope2_Seg09 Rope2_Seg07
R_mid_hand01 Rope2_Seg09
R_mid_hand02 Rope2_Seg09
R_mid_hand03 Rope2_Seg09
spine02 spine01
spine03 spine02
pelvis spine03
null_rope03_connect pelvis
null_rope04_connect pelvis
Rope3_Seg01 null_rope03_connect
Rope3_Seg02 Rope3_Seg01
Rope3_Seg03 Rope3_Seg02
Rope3_Seg04 Rope3_Seg03
Rope3_Seg05 Rope3_Seg04
Rope3_Seg06 Rope3_Seg05
Rope3_Seg07 Rope3_Seg06
Rope3_Seg08 Rope3_Seg07
Rope3_Seg09 Rope3_Seg08
R_rear_hand01 Rope3_Seg09
R_rear_hand02 Rope3_Seg09
R_rear_hand03 Rope3_Seg09
Rope4_Seg01 null_rope04_connect
Rope4_Seg02 Rope4_Seg01
Rope4_Seg03 Rope4_Seg02
Rope4_Seg04 Rope4_Seg03
Rope4_Seg05 Rope4_Seg04
Rope4_Seg06 Rope4_Seg05
Rope4_Seg07 Rope4_Seg06
Rope4_Seg08 Rope4_Seg07
Rope4_Seg09 Rope4_Seg08
L_rear_hand01 Rope4_Seg09
L_rear_hand02 Rope4_Seg09
L_rear_hand03 Rope4_Seg09
[BasePosition]
#SegmentName Tx, Ty, Tz, Rx, Ry, Rz, BoneLength
MASTER 0.000000 0.000000 0.000000 -90.000000 0.000000 0.000000 10.000000 
root 0.000000 0.000000 0.000000 0.000000 0.000000 0.000000 10.000000 
chest 0.000000 0.000000 0.000000 0.000000 0.000000 0.000000 10.000000 
L_mid_tent01 0.000000 0.000000 0.000000 0.000000 0.000000 0.000000 10.000000 
R_mid_tent01 0.000000 0.000000 0.000000 0.000000 0.000000 0.000000 10.000000 
spine01 0.000000 0.000000 0.000000 0.000000 0.000000 0.000000 10.000000 
Bip01_Neck 0.000000 0.000000 0.000000 0.000000 0.000000 0.000000 10.000000 
L_humerus 0.000000 0.000000 0.000000 0.000000 0.000000 0.000000 10.000000 
R_humerus 0.000000 0.000000 0.000000 0.000000 0.000000 0.000000 10.000000 
weapon_bone 0.000000 0.000000 0.000000 0.000000 0.000000 0.000000 10.000000 
Bip01_Head 0.000000 0.000000 0.000000 0.000000 0.000000 0.000000 10.000000 
eye_left_bone 0.000000 0.000000 0.000000 0.000000 0.000000 0.000000 10.000000 
eye_right_bone 0.000000 0.000000 0.000000 0.000000 0.000000 0.000000 10.000000 
L_forearm 0.000000 0.000000 0.000000 0.000000 0.000000 0.000000 10.000000 
L_front_hand 0.000000 0.000000 0.000000 0.000000 0.000000 0.000000 10.000000 
L_weapon_bone 0.000000 0.000000 0.000000 0.000000 0.000000 0.000000 10.000000 
L_front_hand01_01 0.000000 0.000000 0.000000 0.000000 0.000000 0.000000 10.000000 
L_front_hand02_01 0.000000 0.000000 0.000000 0.000000 0.000000 0.000000 10.000000 
L_front_hand03_01 0.000000 0.000000 0.000000 0.000000 0.000000 0.000000 10.000000 
L_front_hand01_02 0.000000 0.000000 0.000000 0.000000 0.000000 0.000000 10.000000 
L_front_hand02_02 0.000000 0.000000 0.000000 0.000000 0.000000 0.000000 10.000000 
L_front_hand03_02 0.000000 0.000000 0.000000 0.000000 0.000000 0.000000 10.000000 
R_forearm 0.000000 0.000000 0.000000 0.000000 0.000000 0.000000 10.000000 
R_front_hand 0.000000 0.000000 0.000000 0.000000 0.000000 0.000000 10.000000 
R_weapon_bone 0.000000 0.000000 0.000000 0.000000 0.000000 0.000000 10.000000 
R_front_hand01_01 0.000000 0.000000 0.000000 0.000000 0.000000 0.000000 10.000000 
R_front_hand02_01 0.000000 0.000000 0.000000 0.000000 0.000000 0.000000 10.000000 
R_front_hand03_01 0.000000 0.000000 0.000000 0.000000 0.000000 0.000000 10.000000 
R_front_hand01_02 0.000000 0.000000 0.000000 0.000000 0.000000 0.000000 10.000000 
R_front_hand02_02 0.000000 0.000000 0.000000 0.000000 0.000000 0.000000 10.000000 
R_front_hand03_02 0.000000 0.000000 0.000000 0.000000 0.000000 0.000000 10.000000 
null_rope01_connect 0.000000 0.000000 0.000000 0.000000 0.000000 0.000000 10.000000 
Rope1_Seg01 0.000000 0.000000 0.000000 0.000000 0.000000 0.000000 10.000000 
Rope1_Seg02 0.000000 0.000000 0.000000 0.000000 0.000000 0.000000 10.000000 
Rope1_Seg03 0.000000 0.000000 0.000000 0.000000 0.000000 0.000000 10.000000 
Rope1_Seg04 0.000000 0.000000 0.000000 0.000000 0.000000 0.000000 10.000000 
Rope1_Seg05 0.000000 0.000000 0.000000 0.000000 0.000000 0.000000 10.000000 
Rope1_Seg06 0.000000 0.000000 0.000000 0.000000 0.000000 0.000000 10.000000 
Rope1_Seg07 0.000000 0.000000 0.000000 0.000000 0.000000 0.000000 10.000000 
Rope1_Seg09 0.000000 0.000000 0.000000 0.000000 0.000000 0.000000 10.000000 
L_mid_hand01 0.000000 0.000000 0.000000 0.000000 0.000000 0.000000 10.000000 
L_mid_hand02 0.000000 0.000000 0.000000 0.000000 0.000000 0.000000 10.000000 
L_mid_hand03 0.000000 0.000000 0.000000 0.000000 0.000000 0.000000 10.000000 
null_rope02_connect 0.000000 0.000000 0.000000 0.000000 0.000000 0.000000 10.000000 
Rope2_Seg01 0.000000 0.000000 0.000000 0.000000 0.000000 0.000000 10.000000 
Rope2_Seg02 0.000000 0.000000 0.000000 0.000000 0.000000 0.000000 10.000000 
Rope2_Seg03 0.000000 0.000000 0.000000 0.000000 0.000000 0.000000 10.000000 
Rope2_Seg04 0.000000 0.000000 0.000000 0.000000 0.000000 0.000000 10.000000 
Rope2_Seg05 0.000000 0.000000 0.000000 0.000000 0.000000 0.000000 10.000000 
Rope2_Seg06 0.000000 0.000000 0.000000 0.000000 0.000000 0.000000 10.000000 
Rope2_Seg07 0.000000 0.000000 0.000000 0.000000 0.000000 0.000000 10.000000 
Rope2_Seg09 0.000000 0.000000 0.000000 0.000000 0.000000 0.000000 10.000000 
R_mid_hand01 0.000000 0.000000 0.000000 0.000000 0.000000 0.000000 10.000000 
R_mid_hand02 0.000000 0.000000 0.000000 0.000000 0.000000 0.000000 10.000000 
R_mid_hand03 0.000000 0.000000 0.000000 0.000000 0.000000 0.000000 10.000000 
spine02 0.000000 0.000000 0.000000 0.000000 0.000000 0.000000 10.000000 
spine03 0.000000 0.000000 0.000000 0.000000 0.000000 0.000000 10.000000 
pelvis 0.000000 0.000000 0.000000 0.000000 0.000000 0.000000 10.000000 
null_rope03_connect 0.000000 0.000000 0.000000 0.000000 0.000000 0.000000 10.000000 
null_rope04_connect 0.000000 0.000000 0.000000 0.000000 0.000000 0.000000 10.000000 
Rope3_Seg01 0.000000 0.000000 0.000000 0.000000 0.000000 0.000000 10.000000 
Rope3_Seg02 0.000000 0.000000 0.000000 0.000000 0.000000 0.000000 10.000000 
Rope3_Seg03 0.000000 0.000000 0.000000 0.000000 0.000000 0.000000 10.000000 
Rope3_Seg04 0.000000 0.000000 0.000000 0.000000 0.000000 0.000000 10.000000 
Rope3_Seg05 0.000000 0.000000 0.000000 0.000000 0.000000 0.000000 10.000000 
Rope3_Seg06 0.000000 0.000000 0.000000 0.000000 0.000000 0.000000 10.000000 
Rope3_Seg07 0.000000 0.000000 0.000000 0.000000 0.000000 0.000000 10.000000 
Rope3_Seg08 0.000000 0.000000 0.000000 0.000000 0.000000 0.000000 10.000000 
Rope3_Seg09 0.000000 0.000000 0.000000 0.000000 0.000000 0.000000 10.000000 
R_rear_hand01 0.000000 0.000000 0.000000 0.000000 0.000000 0.000000 10.000000 
R_rear_hand02 0.000000 0.000000 0.000000 0.000000 0.000000 0.000000 10.000000 
R_rear_hand03 0.000000 0.000000 0.000000 0.000000 0.000000 0.000000 10.000000 
Rope4_Seg01 0.000000 0.000000 0.000000 0.000000 0.000000 0.000000 10.000000 
Rope4_Seg02 0.000000 0.000000 0.000000 0.000000 0.000000 0.000000 10.000000 
Rope4_Seg03 0.000000 0.000000 0.000000 0.000000 0.000000 0.000000 10.000000 
Rope4_Seg04 0.000000 0.000000 0.000000 0.000000 0.000000 0.000000 10.000000 
Rope4_Seg05 0.000000 0.000000 0.000000 0.000000 0.000000 0.000000 10.000000 
Rope4_Seg06 0.000000 0.000000 0.000000 0.000000 0.000000 0.000000 10.000000 
Rope4_Seg07 0.000000 0.000000 0.000000 0.000000 0.000000 0.000000 10.000000 
Rope4_Seg08 0.000000 0.000000 0.000000 0.000000 0.000000 0.000000 10.000000 
Rope4_Seg09 0.000000 0.000000 0.000000 0.000000 0.000000 0.000000 10.000000 
L_rear_hand01 0.000000 0.000000 0.000000 0.000000 0.000000 0.000000 10.000000 
L_rear_hand02 0.000000 0.000000 0.000000 0.000000 0.000000 0.000000 10.000000 
L_rear_hand03 0.000000 0.000000 0.000000 0.000000 0.000000 0.000000 10.000000 
#Beginning of Data. Separated by tabs
#Fr	Tx	Ty	Tz	Rx	Ry	Rz	SF
[MASTER]
19 0.000000 0.000000 0.000000 0.001660 0.001660 0.001660 0.000000
20 0.000000 0.000000 0.000000 0.001660 0.001660 0.001660 0.000000
[root]
19 -33.243416 -55.667011 1502.174805 -99.423264 -43.131321 -86.548264 1503.573486
20 -32.471088 -55.861473 1502.083374 -99.185555 -41.415134 -86.698914 1503.472534
[chest]
19 -84.512650 -34.090519 0.000000 -12.686694 -24.173283 169.606781 91.129311
20 -84.512650 -34.090519 0.000000 -11.995028 -20.156191 169.375412 91.129311
[L_mid_tent01]
19 27.299173 22.179106 -249.918716 3.203176 27.571938 80.515701 252.381699
20 27.299175 22.179106 -249.918701 3.862626 36.229195 81.347595 252.381699
[R_mid_tent01]
19 23.228794 24.509907 226.238495 163.313614 -36.567688 83.167076 228.744751
20 23.228794 24.509907 226.238495 160.432037 -47.061241 87.899773 228.744751
[spine01]
19 -0.361383 -0.195265 0.000000 0.002062 0.001122 32.879829 0.410763
20 -0.361383 -0.195265 0.000000 0.002062 0.001122 32.879829 0.410763
[Bip01_Neck]
19 165.484543 71.581718 0.000119 176.643677 -1.657967 43.431911 180.302734
20 165.484543 71.581718 0.000119 176.643677 -1.657967 43.431911 180.302734
[L_humerus]
19 -13.983130 -135.272980 -120.471481 170.988922 41.596619 -83.890656 181.680161
20 -13.983130 -135.272980 -120.471481 170.132584 49.808262 -88.615089 181.680161
[R_humerus]
19 -13.983309 -135.273102 125.287651 -170.112656 -17.030895 -101.843727 184.909012
20 -13.983309 -135.273102 125.287651 -168.805557 -22.085182 -103.532448 184.909012
[weapon_bone]
19 235.964890 -300.705902 0.000000 0.000000 -89.951546 -128.212341 382.234833
20 235.964890 -300.705902 0.000000 0.000000 -89.951546 -128.212341 382.234833
[Bip01_Head]
19 213.327835 186.039200 7.596774 32.509750 6.104465 -43.835560 283.155548
20 213.328903 186.036270 7.634344 30.526999 5.965519 -43.834412 283.155426
[eye_left_bone]
19 -24.626970 125.451866 -64.772606 0.000000 -90.000000 -99.840431 143.318359
20 -24.626970 125.451866 -64.772606 0.000000 -90.000000 -99.840431 143.318359
[eye_right_bone]
19 -24.626970 125.451866 64.327362 0.000000 -89.965736 80.156380 143.117676
20 -24.626970 125.451866 64.327362 0.000000 -89.965736 80.156380 143.117676
[L_forearm]
19 322.776093 0.000000 -0.000119 0.000396 -0.002314 -109.419975 322.776093
20 322.776093 0.000000 -0.000119 0.000396 -0.002314 -109.419975 322.776093
[L_front_hand]
19 241.149185 -0.042021 -3.300071 -178.667953 -1.835447 -27.422350 241.171753
20 241.149185 -0.042021 -3.300071 -178.667953 -1.835447 -27.422342 241.171753
[L_weapon_bone]
19 156.183838 0.000000 0.000000 0.000014 0.000007 0.000001 156.183838
20 156.183838 0.000000 0.000000 0.000014 0.000007 0.000001 156.183838
[L_front_hand01_01]
19 86.095154 20.947098 -0.655860 -0.291918 -0.522544 67.227623 88.609184
20 86.095154 20.947098 -0.655860 -0.299135 -0.518030 67.911942 88.609184
[L_front_hand02_01]
19 86.935165 -11.437475 24.513514 143.299149 -55.645802 -48.269920 91.046425
20 86.935165 -11.437475 24.513514 144.114838 -56.047676 -49.250378 91.046425
[L_front_hand03_01]
19 86.637497 -14.123976 -20.424902 -143.556351 53.862476 -50.232788 90.126129
20 86.637497 -14.123976 -20.424902 -144.319244 54.262909 -51.171417 90.126129
[L_front_hand01_02]
19 71.020905 -0.000179 0.000030 0.000316 -0.002326 -105.462708 71.020905
20 71.020905 -0.000179 0.000030 0.000317 -0.002326 -105.501534 71.020905
[L_front_hand02_02]
19 71.020927 -0.000119 0.000060 0.000316 -0.002326 -105.462708 71.020927
20 71.020927 -0.000119 0.000060 0.000317 -0.002326 -105.501534 71.020927
[L_front_hand03_02]
19 71.020905 -0.000060 0.000060 0.000316 -0.002326 -105.462708 71.020905
20 71.020905 -0.000060 0.000060 0.000317 -0.002326 -105.501534 71.020905
[R_forearm]
19 322.776428 -0.000060 0.000030 0.202103 0.065158 -108.062805 322.776428
20 322.776428 -0.000060 0.000030 0.202103 0.065158 -108.062820 322.776428
[R_front_hand]
19 238.847015 -0.006795 2.210259 -2.635298 -10.645461 -26.312506 238.857239
20 238.847015 -0.006795 2.210259 -2.635298 -10.645461 -26.312506 238.857239
[R_weapon_bone]
19 155.664093 0.002503 -0.000030 0.003487 0.001180 -90.988930 155.664078
20 155.664093 0.002503 -0.000030 0.003487 0.001180 -90.988930 155.664078
[R_front_hand01_01]
19 87.624611 14.231146 22.918642 -141.470367 -54.661602 46.147430 91.683487
20 87.624611 14.231146 22.918642 -142.976746 -55.478233 47.985172 91.683487
[R_front_hand02_01]
19 89.356956 14.367283 -19.491137 142.182632 53.068485 48.753605 92.579636
20 89.356956 14.367283 -19.491137 143.617325 53.874443 50.539886 92.579636
[R_front_hand03_01]
19 87.286232 -22.307278 -0.143439 0.083738 -0.444647 -65.861671 90.091743
20 87.286232 -22.307278 -0.143439 0.095752 -0.445027 -67.192543 90.091743
[R_front_hand01_02]
19 71.020905 0.000060 0.000119 0.002323 -0.000334 106.381714 71.020905
20 71.020905 0.000060 0.000119 0.002323 -0.000334 106.381714 71.020905
[R_front_hand02_02]
19 71.020844 -0.000030 -0.000119 0.002323 -0.000334 106.381714 71.020836
20 71.020844 -0.000030 -0.000119 0.002323 -0.000334 106.381714 71.020836
[R_front_hand03_02]
19 71.020905 0.000000 0.000030 0.002323 -0.000334 106.381714 71.020905
20 71.020905 0.000000 0.000030 0.002323 -0.000334 106.381714 71.020905
[null_rope01_connect]
19 328.732483 0.000000 -0.000238 -127.051277 -55.933861 -178.234161 328.732483
20 328.732483 0.000000 -0.000238 -128.027863 -47.312897 -179.025070 328.732483
[Rope1_Seg01]
19 -0.000011 -0.000021 0.000043 99.651581 -3.091427 -158.527664 0.000049
20 -0.000009 -0.000018 0.000037 100.376465 -3.355290 -159.979858 0.000042
[Rope1_Seg02]
19 139.999863 -0.000179 0.000000 20.403124 -10.438869 -16.080540 139.999863
20 139.999863 -0.000179 0.000000 21.026716 -13.756802 -16.083488 139.999863
[Rope1_Seg03]
19 139.999924 0.000060 -0.000060 35.487442 -26.846329 -24.441822 139.999924
20 139.999924 0.000060 -0.000060 28.134661 -28.280447 -19.952795 139.999924
[Rope1_Seg04]
19 139.999924 -0.000060 -0.000119 11.500931 -31.602066 -3.386946 139.999924
20 139.999924 -0.000060 -0.000119 7.924111 -27.962008 -2.071230 139.999924
[Rope1_Seg05]
19 139.999832 0.000119 -0.000060 -1.377429 -27.931005 6.626534 139.999832
20 139.999832 0.000119 -0.000060 -2.648991 -27.858662 7.896016 139.999832
[Rope1_Seg06]
19 139.999954 0.000119 -0.000060 -3.007154 -14.122653 2.677567 139.999954
20 139.999954 0.000119 -0.000060 -3.897000 -14.772557 3.206846 139.999954
[Rope1_Seg07]
19 139.999985 0.000060 0.000000 -2.285703 -7.225736 0.983664 139.999985
20 139.999985 0.000060 0.000000 -2.849303 -7.404505 1.009030 139.999985
[Rope1_Seg09]
19 121.602913 0.000119 -0.000089 -89.793175 -1.359789 0.847147 121.602913
20 121.602913 0.000119 -0.000089 -89.793175 -1.359789 0.847147 121.602913
[L_mid_hand01]
19 103.859421 1.038730 8.195221 130.544373 -67.584518 -38.866947 104.187431
20 103.859421 1.038730 8.195221 130.544373 -67.584534 -38.866943 104.187431
[L_mid_hand02]
19 105.572853 -4.139662 -10.864139 -168.923172 43.409309 -73.498894 106.211075
20 105.572853 -4.139662 -10.864139 -168.923172 43.409321 -73.498909 106.211075
[L_mid_hand03]
19 104.641464 17.579376 -3.913581 -6.012625 17.808172 74.893669 106.179977
20 104.641464 17.579376 -3.913581 -6.012629 17.808178 74.893669 106.179977
[null_rope02_connect]
19 328.732849 0.000179 -0.000119 -94.922287 54.358028 31.497581 328.732849
20 328.732849 0.000179 -0.000119 -105.185417 44.703453 25.018787 328.732849
[Rope2_Seg01]
19 -0.000089 0.000096 0.000000 -155.416992 47.633072 -42.394039 0.000130
20 -0.000098 0.000095 0.000000 -153.663574 47.892582 -41.488602 0.000136
[Rope2_Seg02]
19 139.999741 -0.000060 -0.000119 -6.109980 -4.737150 6.602767 139.999756
20 139.999741 -0.000060 -0.000119 -4.329956 -5.091175 5.437534 139.999756
[Rope2_Seg03]
19 140.000107 0.000030 0.000000 -6.308950 -10.458996 11.004282 140.000107
20 140.000107 0.000030 0.000000 -4.684037 -9.608316 8.817657 140.000107
[Rope2_Seg04]
19 139.999802 0.000000 -0.000060 -6.327962 -22.624636 18.073248 139.999802
20 139.999802 0.000000 -0.000060 -4.284724 -21.562651 14.026492 139.999802
[Rope2_Seg05]
19 139.999985 -0.000060 0.000119 -2.514427 -4.529470 25.016035 139.999985
20 139.999985 -0.000060 0.000119 -3.880661 -13.465088 21.597275 139.999985
[Rope2_Seg06]
19 139.999893 -0.000030 -0.000119 1.967377 -1.833765 18.573553 139.999893
20 139.999893 -0.000030 -0.000119 2.381927 -6.189126 20.060566 139.999893
[Rope2_Seg07]
19 139.999893 0.000060 -0.000060 2.164816 -1.809947 10.167192 139.999893
20 139.999893 0.000060 -0.000060 3.367322 -4.759805 11.658569 139.999893
[Rope2_Seg09]
19 121.338966 0.000089 -0.000060 33.793236 -1.359788 -0.847141 121.338966
20 121.338966 0.000089 -0.000060 33.793236 -1.359788 -0.847141 121.338966
[R_mid_hand01]
19 104.680779 11.144459 -10.335981 -20.399694 43.830383 64.493835 105.778534
20 104.680779 11.144459 -10.335981 -17.390701 44.882233 68.793839 105.778534
[R_mid_hand02]
19 104.070427 2.443552 8.231699 55.242626 -64.206024 32.532070 104.424065
20 104.070427 2.443552 8.231699 50.967751 -66.804413 37.227455 104.424065
[R_mid_hand03]
19 106.028137 -11.221827 -5.996406 -175.861618 15.275425 -71.940262 106.788818
20 106.028137 -11.221827 -5.996406 -176.756866 15.486362 -75.308266 106.788818
[spine02]
19 129.756927 0.001550 0.000119 0.360061 -4.044797 -12.915058 129.756927
20 129.756927 0.001550 0.000119 0.360061 -4.044797 -12.915058 129.756927
[spine03]
19 78.614067 0.081635 -4.899013 1.896495 3.831288 16.473045 78.766602
20 78.614067 0.081635 -4.899013 1.896495 3.831288 16.473045 78.766602
[pelvis]
19 169.435242 0.051022 0.000000 -0.060465 -0.180225 14.087930 169.435257
20 169.435242 0.051022 0.000000 -0.060465 -0.180225 14.087930 169.435257
[null_rope03_connect]
19 -1.257226 -2.466202 137.391083 -156.476929 -83.631790 -120.702568 137.418976
20 -1.257226 -2.466202 137.391083 -158.025940 -83.706490 -120.873833 137.418976
[null_rope04_connect]
19 -1.259640 -2.480268 -137.844437 -156.476929 -83.631790 -120.702568 137.872513
20 -1.259640 -2.480268 -137.844437 -158.025940 -83.706490 -120.873833 137.872513
[Rope3_Seg01]
19 0.000010 0.000038 -0.000114 -126.595634 -7.269485 -101.069008 0.000121
20 0.000010 0.000038 -0.000114 -126.173744 -14.420131 -95.751030 0.000121
[Rope3_Seg02]
19 139.999924 -0.000119 0.000060 3.440501 -15.384605 -24.663000 139.999924
20 139.999924 -0.000119 0.000060 4.595316 -17.848074 -27.945618 139.999924
[Rope3_Seg03]
19 139.999924 -0.000119 0.000119 -1.796574 -3.050680 -17.906086 139.999924
20 139.999924 -0.000119 0.000119 -2.697662 -2.989715 -15.050552 139.999924
[Rope3_Seg04]
19 139.999924 0.000119 0.000000 7.680052 -15.704835 -1.224188 139.999924
20 139.999924 0.000119 0.000000 9.966490 -14.656677 -0.887863 139.999924
[Rope3_Seg05]
19 139.999924 -0.000238 0.000060 14.549355 -20.987797 8.824314 139.999924
20 139.999924 -0.000238 0.000060 19.799278 -21.362780 8.884338 139.999924
[Rope3_Seg06]
19 139.999893 -0.000119 -0.000060 7.127017 -8.435645 5.370841 139.999893
20 139.999893 -0.000119 -0.000060 9.683700 -8.747207 7.035596 139.999893
[Rope3_Seg07]
19 139.999771 0.000060 -0.000119 4.477313 -4.665754 3.708465 139.999771
20 139.999771 0.000060 -0.000119 5.593678 -4.499958 4.877554 139.999771
[Rope3_Seg08]
19 139.999985 -0.000060 0.000000 2.818708 -2.551103 2.383591 139.999985
20 139.999985 -0.000060 0.000000 3.328328 -2.340962 3.111184 139.999985
[Rope3_Seg09]
19 90.185997 -0.000179 -0.000060 89.793228 -1.359877 -0.847183 90.185997
20 90.185997 -0.000179 -0.000060 89.793228 -1.359877 -0.847183 90.185997
[R_rear_hand01]
19 103.366196 -6.073594 -10.757982 -175.914093 24.346796 -69.567566 104.101845
20 103.366196 -6.073594 -10.757982 -177.218140 24.518011 -72.727440 104.101845
[R_rear_hand02]
19 100.509819 12.039542 -7.992327 -15.704349 35.886925 67.395027 101.543350
20 100.509819 12.039542 -7.992327 -13.655097 36.621037 70.859306 101.543350
[R_rear_hand03]
19 101.539970 5.215704 5.435467 74.640678 -68.020927 18.152246 101.819031
20 101.539970 5.215704 5.435467 72.467621 -70.792877 20.476612 101.819031
[Rope4_Seg01]
19 0.000010 0.000011 -0.000043 56.790577 -17.440403 -132.134735 0.000045
20 0.000010 0.000009 -0.000037 62.512726 -24.204201 -135.738647 0.000039
[Rope4_Seg02]
19 139.999985 0.000060 0.000119 -6.671167 17.683437 -6.017130 139.999985
20 139.999985 0.000060 0.000119 -10.798243 16.791723 -10.689339 139.999985
[Rope4_Seg03]
19 139.999924 0.000000 -0.000238 -1.908695 17.831873 -1.900042 139.999924
20 139.999924 0.000000 -0.000238 -5.196565 20.813713 -6.708965 139.999924
[Rope4_Seg04]
19 139.999985 0.000000 0.000119 0.304227 11.663383 0.236562 139.999985
20 139.999985 0.000000 0.000119 -0.399648 13.878633 -2.109732 139.999985
[Rope4_Seg05]
19 139.999802 -0.000060 -0.000119 2.107712 14.002856 -10.655251 139.999802
20 139.999802 -0.000060 -0.000119 1.109693 16.143406 -13.727166 139.999802
[Rope4_Seg06]
19 139.999924 0.000000 0.000060 6.641078 19.975521 -23.730261 139.999924
20 139.999924 0.000000 0.000060 5.243043 22.774992 -28.623381 139.999924
[Rope4_Seg07]
19 139.999802 0.000000 0.000000 6.691485 10.197721 -14.856056 139.999802
20 139.999802 0.000000 0.000000 5.857512 9.818116 -15.155314 139.999802
[Rope4_Seg08]
19 139.999924 0.000000 0.000119 2.405228 4.102020 -7.957505 139.999924
20 139.999924 0.000000 0.000119 1.644092 3.635875 -7.295029 139.999924
[Rope4_Seg09]
19 90.185791 0.000060 0.000060 -135.617828 2.228885 0.850567 90.185791
20 90.185791 0.000060 0.000060 -135.617828 2.228885 0.850567 90.185791
[L_rear_hand01]
19 101.696655 -8.392275 -7.654577 -12.874829 -36.868488 107.832764 102.329041
20 101.696655 -8.392275 -7.654577 -12.874829 -36.868488 107.832764 102.329041
[L_rear_hand02]
19 102.726799 -1.568258 5.773216 71.484581 71.816628 158.486160 102.900848
20 102.726799 -1.568258 5.773216 71.484619 71.816643 158.486176 102.900848
[L_rear_hand03]
19 104.552910 9.721220 -10.420293 -177.714203 -24.565960 -106.089035 105.519653
20 104.552910 9.721220 -10.420293 -177.714203 -24.565966 -106.089035 105.519653
